<svg version="1.2" xmlns="http://www.w3.org/2000/svg" viewBox="0 0 256 256" width="256" height="256">
	<title>web</title>
	<style>
		.s0 { fill: #000000 } 
	</style>
	<path id="MG" class="s0" aria-label="MG"  d="m73.7 153.7c2.8 0 5.7-1.7 7.8-5.3l31-49.8v99.6c0 9.7 5 17.8 11 17.8 6.1 0 11.1-8.1 11.1-17.8v-142.5c0-9.7-5-17.8-11.1-17.8-2.9 0-5.7 2-7.7 5.3l-42.1 67.6-42.1-67.6c-2.1-3.3-4.8-5.3-7.8-5.3-6 0-11.1 8.1-11.1 17.8v142.5c0 9.7 5.1 17.8 11.1 17.8 6.1 0 11.1-8.1 11.1-17.8v-99.6l31 49.8c2.1 3.6 5 5.3 7.8 5.3zm168.4-26.7c0-9.8-5-17.8-11-17.8h-20.3c-6.1 0-11.1 8-11.1 17.8 0 9.7 5 17.8 11.1 17.8h9.2v24.7c-6.1 7.6-13.2 10.9-20.3 10.9-18.3 0-33.2-23.9-33.2-53.4 0-29.5 14.9-53.4 33.2-53.4 8.5 0 17.2 5 23.6 15.5 2 3.7 4.8 5.3 7.8 5.3 5.8 0 11-8 11-17.8 0-4.4-1.2-9.2-3.2-12.5-11-17.3-25-26.2-39.2-26.2-30.6 0-55.4 39.8-55.4 89.1 0 49.2 24.8 89 55.4 89 7.1 0 14.2-2.2 21-6.7 2.2 5.6 6 8.9 10.4 8.9 6.9 0 12.4-8.9 12.4-20 0-4.7-1-8.9-2.7-12.5 0.8-2.5 1.3-5.3 1.3-8.4z"/>
</svg>